<?xml version="1.0" encoding="utf-8"?>
<!-- Generator: Adobe Illustrator 22.1.0, SVG Export Plug-In . SVG Version: 6.00 Build 0)  -->
<svg version="1.1" id="レイヤー_1" xmlns="http://www.w3.org/2000/svg" xmlns:xlink="http://www.w3.org/1999/xlink" x="0px"
	 y="0px" viewBox="0 0 118 26" style="enable-background:new 0 0 118 26;" xml:space="preserve">
<style type="text/css">
	.st0{fill:#F2C31C;}
	.st1{fill:#66AF32;}
	.st2{fill:#1793CC;}
	.st3{fill:#DB3F37;}
	.st4{fill:#FFFFFF;}
</style>
<g>
	<g>
		<g>
			<rect x="5" y="5" class="st0" width="4.2" height="4.2"/>
			<rect x="5" y="10.1" class="st0" width="4.2" height="6.7"/>
		</g>
		<g>
			<rect x="15.1" y="5" class="st1" width="4.2" height="11.7"/>
			<rect x="15.1" y="17.6" class="st1" width="4.2" height="4.2"/>
		</g>
		<path class="st2" d="M4.2,21.8h5v-4.2h-5V0C1.9,0,0,0,0,0v5.9v11.7C0,19.9,1.9,21.8,4.2,21.8z"/>
		<path class="st3" d="M15.1,0H5v4.2h5v17.6h4.2V4.2h5C19.3,1.9,17.4,0,15.1,0z"/>
	</g>
	<g>
		<g>
			<path class="st4" d="M28.7,1.8c0-0.1,0.1-0.2,0.2-0.2h1.7c0.1,0,0.2,0.1,0.2,0.2v9.5c0,0.1,0,0.1,0.1,0.1h5.3
				c0.1,0,0.2,0.1,0.2,0.2V13c0,0.1-0.1,0.2-0.2,0.2h-7.2c-0.1,0-0.2-0.1-0.2-0.2V1.8z"/>
			<path class="st4" d="M38.1,13.2c-0.1,0-0.2-0.1-0.2-0.2V5.2C37.9,5.1,38,5,38.1,5h1.6c0.1,0,0.2,0.1,0.2,0.2V13
				c0,0.1-0.1,0.2-0.2,0.2H38.1z"/>
			<path class="st4" d="M42.6,13.2c-0.1,0-0.2-0.1-0.2-0.2V6.6c0-0.1,0-0.1-0.1-0.1h-0.5c-0.1,0-0.2-0.1-0.2-0.2V5.2
				c0-0.1,0.1-0.2,0.2-0.2h0.5c0.1,0,0.1,0,0.1-0.1V4.4c0-1.9,0.9-2.7,2.7-2.7h0.7C46,1.7,46,1.7,46,1.8v1.4c0,0.1-0.1,0.2-0.2,0.2
				h-0.5c-0.8,0-1,0.2-1,1v0.6c0,0.1,0,0.1,0.1,0.1h1.5C46,5,46,5.1,46,5.2v1.1c0,0.1-0.1,0.2-0.2,0.2h-1.5c-0.1,0-0.1,0-0.1,0.1V13
				c0,0.1-0.1,0.2-0.2,0.2H42.6z"/>
			<path class="st4" d="M47.4,11.1c-0.2-0.5-0.3-1.2-0.3-2c0-0.8,0.1-1.5,0.3-2c0.5-1.4,1.7-2.3,3.3-2.3c1.7,0,2.9,0.9,3.4,2.3
				c0.2,0.6,0.3,1.1,0.3,2.5c0,0.1-0.1,0.2-0.2,0.2h-5c-0.1,0-0.1,0-0.1,0.1c0,0.2,0.1,0.4,0.1,0.6c0.3,0.8,0.9,1.2,1.8,1.2
				c0.9,0,1.5-0.3,1.9-0.8c0.1-0.1,0.2-0.1,0.3,0l1,0.9c0.1,0.1,0.1,0.2,0,0.2c-0.7,0.8-1.8,1.4-3.4,1.4
				C49.1,13.4,47.9,12.5,47.4,11.1z M52.3,7.5c-0.2-0.7-0.8-1.1-1.6-1.1c-0.8,0-1.4,0.4-1.6,1.1C49.1,7.7,49,7.9,49,8.2
				c0,0.1,0,0.1,0.1,0.1h3.2c0.1,0,0.1,0,0.1-0.1C52.4,7.9,52.4,7.7,52.3,7.5z"/>
			<path class="st4" d="M59,13.2c-0.1,0-0.2-0.1-0.2-0.2V5.2C58.8,5.1,58.9,5,59,5h1.6c0.1,0,0.2,0.1,0.2,0.2V13
				c0,0.1-0.1,0.2-0.2,0.2H59z"/>
			<path class="st4" d="M62.5,12.1c-0.1-0.1-0.1-0.2,0-0.2l1-1c0.1-0.1,0.2-0.1,0.2,0c0.6,0.5,1.5,0.9,2.4,0.9c1,0,1.5-0.4,1.5-1
				c0-0.5-0.3-0.8-1.4-0.9l-0.9-0.1c-1.7-0.2-2.5-1-2.5-2.4c0-1.6,1.1-2.6,3.2-2.6c1.3,0,2.3,0.4,3.1,1c0.1,0.1,0.1,0.2,0,0.2
				l-0.8,1c-0.1,0.1-0.2,0.1-0.2,0c-0.5-0.4-1.3-0.7-2.1-0.7c-0.8,0-1.2,0.4-1.2,0.8C64.7,7.7,65,8,66,8.1l0.9,0.1
				c1.7,0.2,2.5,1.1,2.5,2.4c0,1.6-1.2,2.8-3.4,2.8C64.3,13.4,63.2,12.7,62.5,12.1z"/>
			<path class="st4" d="M75,13.2c-0.1,0-0.2-0.1-0.2-0.2V3.6c0-0.1,0-0.1-0.1-0.1h-3c-0.1,0-0.2-0.1-0.2-0.2V1.8
				c0-0.1,0.1-0.2,0.2-0.2h8.2c0.1,0,0.2,0.1,0.2,0.2v1.5c0,0.1-0.1,0.2-0.2,0.2h-3c-0.1,0-0.1,0-0.1,0.1V13c0,0.1-0.1,0.2-0.2,0.2
				H75z"/>
			<path class="st4" d="M80.3,11.1c-0.2-0.5-0.3-1.2-0.3-2c0-0.8,0.1-1.5,0.3-2c0.5-1.4,1.7-2.3,3.3-2.3c1.7,0,2.9,0.9,3.4,2.3
				c0.2,0.6,0.3,1.1,0.3,2.5c0,0.1-0.1,0.2-0.2,0.2h-5c-0.1,0-0.1,0-0.1,0.1c0,0.2,0.1,0.4,0.1,0.6c0.3,0.8,0.9,1.2,1.8,1.2
				c0.9,0,1.5-0.3,1.9-0.8c0.1-0.1,0.2-0.1,0.3,0l1,0.9c0.1,0.1,0.1,0.2,0,0.2c-0.7,0.8-1.8,1.4-3.4,1.4
				C82,13.4,80.8,12.5,80.3,11.1z M85.2,7.5c-0.2-0.7-0.8-1.1-1.6-1.1c-0.8,0-1.4,0.4-1.6,1.1c-0.1,0.2-0.1,0.4-0.1,0.7
				c0,0.1,0,0.1,0.1,0.1h3.2c0.1,0,0.1,0,0.1-0.1C85.4,7.9,85.3,7.7,85.2,7.5z"/>
			<path class="st4" d="M89.2,11.1c-0.2-0.5-0.3-1.2-0.3-2c0-0.9,0.1-1.5,0.3-2c0.5-1.5,1.7-2.3,3.4-2.3c1.2,0,2.2,0.5,2.8,1.3
				c0.1,0.1,0.1,0.2,0,0.2l-1.1,0.9c-0.1,0.1-0.2,0.1-0.2,0c-0.4-0.5-0.8-0.7-1.5-0.7c-0.7,0-1.3,0.4-1.5,1.1
				c-0.1,0.4-0.2,0.9-0.2,1.5c0,0.6,0,1.1,0.2,1.5c0.2,0.7,0.8,1.1,1.5,1.1c0.7,0,1.1-0.3,1.5-0.7c0.1-0.1,0.2-0.1,0.2,0l1.1,0.9
				c0.1,0.1,0.1,0.2,0,0.2c-0.6,0.8-1.6,1.3-2.8,1.3C91,13.4,89.7,12.6,89.2,11.1z"/>
			<path class="st4" d="M102.5,13.2c-0.1,0-0.2-0.1-0.2-0.2V8.3c0-1.1-0.5-1.8-1.5-1.8c-1,0-1.6,0.7-1.6,1.8V13
				c0,0.1-0.1,0.2-0.2,0.2h-1.6c-0.1,0-0.2-0.1-0.2-0.2V1.8c0-0.1,0.1-0.2,0.2-0.2h1.6c0.1,0,0.2,0.1,0.2,0.2v3.9h0
				c0.4-0.5,1.1-0.9,2.2-0.9c1.7,0,2.8,1.3,2.8,3V13c0,0.1-0.1,0.2-0.2,0.2H102.5z"/>
			<path class="st4" d="M108.4,9.8l-0.4-8c0-0.1,0.1-0.2,0.2-0.2h1.8c0.1,0,0.2,0.1,0.2,0.2l-0.4,8c0,0.1-0.1,0.2-0.2,0.2h-1
				C108.4,10,108.4,9.9,108.4,9.8z"/>
		</g>
		<path class="st4" d="M39.9,2.7c0-0.6-0.5-1-1-1c-0.6,0-1,0.5-1,1c0,0.6,0.5,1,1,1C39.5,3.7,39.9,3.2,39.9,2.7z"/>
		<path class="st4" d="M60.8,2.7c0-0.6-0.5-1-1-1c-0.6,0-1,0.5-1,1c0,0.6,0.5,1,1,1C60.3,3.7,60.8,3.2,60.8,2.7z"/>
		<path class="st4" d="M110,12.2c0-0.6-0.5-1-1-1c-0.6,0-1,0.5-1,1c0,0.6,0.5,1,1,1C109.6,13.2,110,12.7,110,12.2z"/>
	</g>
	<g>
		<rect x="28.5" y="20.9" class="st2" width="12.6" height="0.5"/>
		<rect x="42.9" y="20.9" class="st3" width="12.6" height="0.5"/>
		<rect x="57.3" y="20.9" class="st0" width="12.6" height="0.5"/>
		<rect x="71.7" y="20.9" class="st1" width="12.6" height="0.5"/>
	</g>
	<g>
		<path class="st4" d="M95.1,23.6c0.2,0.2,0.4,0.3,0.7,0.3c1.4-0.1,2.8-1,4.2-2.8c0.2-0.3,0.2-0.4,0.2-0.4c0,0,0-0.1,0-0.1
			c0,0,0,0-0.1,0c0,0-0.1,0-0.4,0.4c-1.1,1.6-2.3,2.5-3.6,2.5c-0.3,0-0.5-0.1-0.6-0.2c-0.1-0.1-0.2-0.3-0.2-0.4c0-0.2,0-0.4,0.5-0.5
			c0.6-0.2,1.2-0.5,1.8-0.9c0.5-0.4,0.8-0.9,0.8-1.2c0-0.1-0.1-0.2-0.2-0.3c-0.1-0.1-0.2-0.1-0.4-0.1c0,0,0,0-0.1,0
			c-0.5,0-1,0.2-1.5,0.6c-0.5,0.4-0.9,1-1.2,1.8l0,0.1l-0.1,0c-0.2,0.1-0.2,0.2-0.2,0.3c0,0,0,0.1,0,0.2c0,0.1,0,0.2,0,0.2
			C94.8,23.1,94.9,23.4,95.1,23.6z M95.5,21.8c0.2-0.3,0.5-0.7,0.9-1.1c0.4-0.4,0.8-0.7,1.1-0.7c0.3,0,0.4,0.2,0.4,0.3
			c0,0.3-0.2,0.6-0.8,1c-0.6,0.4-1,0.6-1.4,0.7l-0.3,0L95.5,21.8z"/>
		<path class="st4" d="M99.8,23.4c0.2,0.1,0.4,0.2,0.7,0.1c0.9,0,2.1-1,3.5-2.7c0.2-0.2,0.2-0.4,0.2-0.4c0-0.1,0-0.1-0.1-0.1
			c0,0-0.2,0-0.4,0.4c-0.6,0.8-1.1,1.4-1.6,1.8l-0.3,0.2l0-0.3c0-0.2-0.1-0.4-0.2-0.5c-0.1-0.1-0.3-0.2-0.4-0.3
			c-0.2-0.1-0.3-0.1-0.5-0.2c-0.2-0.1-0.3-0.3-0.3-0.4c0-0.3,0.1-0.5,0.3-0.8c0.2-0.2,0.4-0.3,0.6-0.3c0.1,0,0.2,0,0.3,0.1
			c0.1,0.1,0.1,0.1,0.1,0.2c0,0.1,0,0.1-0.1,0.2c0,0-0.1,0.1-0.1,0.2c0,0.1,0,0.1,0,0.1c0,0,0.1,0,0.2,0c0,0,0.2,0,0.3-0.2
			c0.1-0.2,0.1-0.3,0.1-0.5c0-0.1-0.1-0.2-0.2-0.3c-0.1-0.1-0.3-0.1-0.4-0.1c-0.4,0-0.8,0.2-1.1,0.5c-0.4,0.3-0.5,0.7-0.5,1
			c0,0.2,0.2,0.4,0.6,0.6c0.5,0.2,0.8,0.5,0.8,0.8c0,0.2-0.1,0.4-0.2,0.6c-0.1,0.2-0.3,0.3-0.6,0.3c-0.2,0-0.3,0-0.4-0.1
			c-0.1-0.1-0.2-0.2-0.2-0.4c0,0,0-0.1,0-0.1c0,0,0,0-0.1,0c0,0,0,0-0.1,0c-0.1,0-0.1,0-0.2,0.1c0,0.1-0.1,0.1-0.1,0.2
			C99.6,23.2,99.7,23.3,99.8,23.4z"/>
		<path class="st4" d="M106.4,19.7c0-0.1-0.1-0.2-0.2-0.3c-0.1-0.1-0.3-0.1-0.4-0.1c-0.4,0-0.8,0.2-1.3,0.6
			c-0.4,0.4-0.7,0.7-0.6,1.1c0,0.2,0.2,0.4,0.6,0.6c0.5,0.2,0.8,0.5,0.8,0.8c0,0.2-0.1,0.4-0.2,0.6c-0.1,0.2-0.3,0.3-0.6,0.3
			c-0.4,0-0.7-0.2-0.7-0.6c0,0,0-0.1,0-0.1c0,0,0,0-0.1,0c0,0,0,0-0.1,0c-0.1,0-0.1,0-0.2,0.1c0,0.1-0.1,0.1-0.1,0.2
			c0,0.2,0.1,0.3,0.3,0.5c0.2,0.1,0.4,0.2,0.7,0.2c0.4,0,0.8-0.2,1-0.4c0.2-0.2,0.3-0.5,0.3-0.7c0-0.2-0.1-0.4-0.2-0.5
			c-0.1-0.1-0.3-0.3-0.4-0.3c-0.2-0.1-0.3-0.1-0.5-0.2c-0.2-0.1-0.3-0.2-0.3-0.4c0-0.3,0.1-0.5,0.5-0.8c0.3-0.3,0.6-0.4,0.7-0.4
			c0.1,0,0.2,0,0.3,0.1c0.1,0.1,0.1,0.2,0.2,0.3l0,0.1l-0.2,0.2c-0.1,0.1-0.1,0.1-0.1,0.2c0,0.1,0,0.1,0,0.1c0,0,0.1,0,0.2,0
			c0,0,0.2,0,0.3-0.3C106.4,20,106.4,19.8,106.4,19.7z"/>
		<path class="st4" d="M107.7,20.1c-0.5,0.7-0.7,1.4-0.7,2.1c0,0.3,0.1,0.5,0.3,0.7c0.2,0.2,0.4,0.2,0.6,0.2c0.5,0,0.9-0.3,1.3-0.7
			c0.4-0.5,0.7-1.1,0.9-1.7l0-0.1l0.1,0c0.6,0,1.1-0.1,1.5-0.3c0.7-0.3,0.7-0.5,0.7-0.5c0,0,0-0.1,0-0.1c0,0-0.1,0-0.1,0
			c0,0-0.2,0.1-0.5,0.3c-0.4,0.2-0.7,0.3-1,0.3c-0.2,0-0.3-0.1-0.4-0.2c-0.1-0.1-0.1-0.3-0.1-0.5c0,0,0-0.1-0.2-0.3
			c-0.1-0.1-0.4-0.1-0.6-0.1C108.7,19.1,108.2,19.5,107.7,20.1z M109.2,19.6L109.2,19.6c0.1,0,0.1,0,0.2,0.1c0,0,0.1,0.1,0.1,0.1
			c0,0,0,0,0,0.2c0,0.1,0,0.1,0,0.2c0,0,0,0.1,0.1,0.1l0.2,0.1l0,0.1c0,0.3-0.2,0.8-0.5,1.4c-0.4,0.6-0.7,0.9-1.1,0.9c0,0,0,0-0.1,0
			c-0.1,0-0.3-0.1-0.4-0.2c-0.1-0.1-0.2-0.3-0.2-0.5c0-0.6,0.2-1.2,0.5-1.7C108.4,19.9,108.8,19.6,109.2,19.6z"/>
		<path class="st4" d="M117.4,21.6c0.1-0.1,0.2-0.3,0.2-0.4c0-0.1,0-0.1-0.1-0.1c0,0,0,0-0.1,0c0,0-0.1,0.1-0.1,0.1
			c0,0-0.1,0.1-0.1,0.1l-0.1,0.2c-0.3,0.3-0.5,0.5-0.8,0.5c-0.6,0-0.7-0.9-0.7-1.3c0-0.1,0-0.4,0-0.8c0-0.4,0-0.7,0-0.8
			c0-0.1-0.1-0.3-0.2-0.3c-0.1-0.1-0.2-0.1-0.3-0.1c-0.1,0-0.4,0.1-0.9,0.5c-0.4,0.3-0.9,0.9-1.5,1.6l0,0.1l-0.1,0
			c-0.2,0-0.2-0.2-0.2-0.3c0,0,0-0.1,0.2-1c0.2-0.7,0.2-1,0.2-1.1c0,0,0-0.1,0-0.1c0,0-0.1,0-0.1,0c0,0,0,0,0,0
			c-0.1,0-0.2,0-0.3,0.1c-0.1,0.1-0.1,0.2-0.2,0.3c0,0.1-0.1,0.4-0.2,0.8c-0.1,0.3-0.2,0.7-0.3,1.2c-0.1,0.5-0.3,0.9-0.3,1.3
			c-0.1,0.5-0.1,0.6-0.1,0.6c0,0,0,0.1,0.1,0.1c0.1,0,0.2,0.1,0.3,0.1c0,0,0,0,0.1-0.1c0.1-0.1,0.1-0.2,0.2-0.4
			c0.1-0.2,0.2-0.4,0.3-0.5c0.3-0.5,0.7-1.1,1.2-1.7c0.5-0.6,0.9-0.9,1.2-0.9c0.1,0,0.4,0,0.4,0.4c0,0.1,0,0.3,0,0.6
			c0,0.3,0,0.5,0,0.6c0.1,1.5,0.7,1.5,0.9,1.5C116.4,22.4,116.9,22.1,117.4,21.6z"/>
		<path class="st4" d="M96.4,23.5c-0.4,0.4-1.2,0.6-1.4,0.6c-1,0.2-2.6,0.2-4.9,0l-0.5,0l0.2-0.4c0.2-0.4,0.6-1.1,1-2.1
			c0.2-0.5,0.2-0.4,0.3-0.6c0.6-1.2,0.8-1.6,1.3-2.3c0.2-0.3,0.4-0.5,0.6-0.7c0.2-0.2,0.4-0.3,0.5-0.4c0.2-0.1,0.3-0.1,0.4-0.2
			c0.3,0,0.5,0.1,0.5,0.3c0,0.2-0.1,0.3-0.4,0.7c-0.2,0.3-0.5,0.6-0.7,0.8c-0.3,0.3-0.5,0.5-0.7,0.5l0,0c0,0,0.1,0.1,0.1,0.2
			c0.1,0.1,0.2,0.1,0.2,0.1c0,0,0.2-0.1,0.5-0.3c0.3-0.2,0.5-0.5,0.8-0.7c0.2-0.3,0.4-0.6,0.6-0.9c0.1-0.3,0.2-0.5,0.2-0.7
			c0-0.2-0.1-0.3-0.2-0.4c-0.1-0.1-0.3-0.1-0.6-0.1c-0.7,0.1-1.4,0.6-2.1,1.3c-0.3,0.4-0.7,0.8-1,1.3C91,20,91,19.9,90.8,20.4
			c-0.2,0.5-0.3,0.6-0.7,1.4c-0.4,0.9-0.8,1.5-1.1,2L89,24l-0.2,0c-0.4,0-0.8,0-1.1,0c-0.2,0-0.4,0-0.5,0.1c-0.4,0.1-0.7,0.1-1,0.2
			c-1.1,0.4-1,0.9-1,1c0.1,0.4,0.2,0.5,0.2,0.5c0.3,0.2,0.7,0.2,1.3,0.1c1.1-0.2,1.9-0.6,2.5-1.4l0.1-0.1l0.2,0
			c0.2,0,0.6,0.1,1.1,0.1c0.6,0.1,1,0.1,1.3,0.1c0.3,0,0.7,0,1.1,0c0.4,0,0.9-0.1,1.4-0.1c0.3,0,0.8-0.1,1.3-0.3
			C96.2,24,96.4,23.6,96.4,23.5z M88,24.9c-0.4,0.3-0.9,0.5-1.3,0.5c-0.1,0-0.1,0-0.2,0c-0.1,0-0.2,0-0.3,0
			c-0.3-0.1-0.4-0.3-0.4-0.4c0-0.1,0-0.4,0.4-0.5c0.2-0.1,0.4-0.1,0.7-0.2c0.3,0,0.6-0.1,0.9-0.1l1,0L88,24.9z"/>
	</g>
</g>
</svg>
